<mxfile host="app.diagrams.net" modified="2024-07-10T01:50:22.109Z" agent="Mozilla/5.0 (Windows NT 10.0; Win64; x64) AppleWebKit/537.36 (KHTML, like Gecko) Chrome/126.0.0.0 Safari/537.36 Edg/126.0.0.0" etag="wYX6XNY4TNemME0qNke9" version="24.6.4" type="device">
  <diagram name="Página-1" id="Y9pSLyk-8hEa5Wa0dzOJ">
    <mxGraphModel dx="2342" dy="622" grid="1" gridSize="10" guides="1" tooltips="1" connect="1" arrows="1" fold="1" page="1" pageScale="1" pageWidth="827" pageHeight="1169" math="0" shadow="0">
      <root>
        <mxCell id="0" />
        <mxCell id="1" parent="0" />
        <mxCell id="2" value="User" style="shape=umlLifeline;perimeter=lifelinePerimeter;whiteSpace=wrap;container=1;dropTarget=0;collapsible=0;recursiveResize=0;outlineConnect=0;portConstraint=eastwest;newEdgeStyle={&quot;edgeStyle&quot;:&quot;elbowEdgeStyle&quot;,&quot;elbow&quot;:&quot;vertical&quot;,&quot;curved&quot;:0,&quot;rounded&quot;:0};size=65;fillColor=#f8cecc;strokeColor=#b85450;" parent="1" vertex="1">
          <mxGeometry width="150" height="680" as="geometry" />
        </mxCell>
        <mxCell id="TrARyFTjPTKdSR6fFpqC-23" style="edgeStyle=elbowEdgeStyle;rounded=0;orthogonalLoop=1;jettySize=auto;html=1;elbow=vertical;curved=0;" edge="1" parent="1" source="3" target="5">
          <mxGeometry relative="1" as="geometry">
            <Array as="points">
              <mxPoint x="750" y="290" />
            </Array>
          </mxGeometry>
        </mxCell>
        <mxCell id="TrARyFTjPTKdSR6fFpqC-24" style="edgeStyle=elbowEdgeStyle;rounded=0;orthogonalLoop=1;jettySize=auto;html=1;elbow=vertical;curved=0;" edge="1" parent="1" source="3" target="4">
          <mxGeometry relative="1" as="geometry">
            <Array as="points">
              <mxPoint x="660" y="140" />
            </Array>
          </mxGeometry>
        </mxCell>
        <mxCell id="3" value="Client&#xa;Front-End" style="shape=umlLifeline;perimeter=lifelinePerimeter;whiteSpace=wrap;container=1;dropTarget=0;collapsible=0;recursiveResize=0;outlineConnect=0;portConstraint=eastwest;newEdgeStyle={&quot;edgeStyle&quot;:&quot;elbowEdgeStyle&quot;,&quot;elbow&quot;:&quot;vertical&quot;,&quot;curved&quot;:0,&quot;rounded&quot;:0};size=65;fillColor=#e1d5e7;strokeColor=#9673a6;" parent="1" vertex="1">
          <mxGeometry x="366" width="150" height="680" as="geometry" />
        </mxCell>
        <mxCell id="TrARyFTjPTKdSR6fFpqC-20" style="edgeStyle=elbowEdgeStyle;rounded=0;orthogonalLoop=1;jettySize=auto;html=1;elbow=vertical;curved=0;" edge="1" parent="1" source="4">
          <mxGeometry relative="1" as="geometry">
            <mxPoint x="1040" y="420" as="targetPoint" />
            <Array as="points">
              <mxPoint x="920" y="420" />
              <mxPoint x="810" y="440" />
            </Array>
          </mxGeometry>
        </mxCell>
        <mxCell id="TrARyFTjPTKdSR6fFpqC-25" style="edgeStyle=elbowEdgeStyle;rounded=0;orthogonalLoop=1;jettySize=auto;html=1;elbow=vertical;curved=0;" edge="1" parent="1" source="4" target="3">
          <mxGeometry relative="1" as="geometry">
            <Array as="points">
              <mxPoint x="608" y="220" />
            </Array>
          </mxGeometry>
        </mxCell>
        <mxCell id="4" value="AuthorizationServer&#xa;Backend de Autenticação&#xa;Interno/Externo" style="shape=umlLifeline;perimeter=lifelinePerimeter;whiteSpace=wrap;container=1;dropTarget=0;collapsible=0;recursiveResize=0;outlineConnect=0;portConstraint=eastwest;newEdgeStyle={&quot;edgeStyle&quot;:&quot;elbowEdgeStyle&quot;,&quot;elbow&quot;:&quot;vertical&quot;,&quot;curved&quot;:0,&quot;rounded&quot;:0};size=65;fillColor=#fff2cc;strokeColor=#d6b656;" parent="1" vertex="1">
          <mxGeometry x="700" width="161" height="680" as="geometry" />
        </mxCell>
        <mxCell id="TrARyFTjPTKdSR6fFpqC-19" style="edgeStyle=elbowEdgeStyle;rounded=0;orthogonalLoop=1;jettySize=auto;html=1;elbow=vertical;curved=0;" edge="1" parent="1" source="5">
          <mxGeometry relative="1" as="geometry">
            <mxPoint x="780" y="340" as="targetPoint" />
          </mxGeometry>
        </mxCell>
        <mxCell id="TrARyFTjPTKdSR6fFpqC-22" style="edgeStyle=elbowEdgeStyle;rounded=0;orthogonalLoop=1;jettySize=auto;html=1;elbow=vertical;curved=0;" edge="1" parent="1" source="5" target="3">
          <mxGeometry relative="1" as="geometry">
            <Array as="points">
              <mxPoint x="730" y="490" />
            </Array>
          </mxGeometry>
        </mxCell>
        <mxCell id="5" value="ResourceServer&#xa;Backend com o banco de dados" style="shape=umlLifeline;perimeter=lifelinePerimeter;whiteSpace=wrap;container=1;dropTarget=0;collapsible=0;recursiveResize=0;outlineConnect=0;portConstraint=eastwest;newEdgeStyle={&quot;edgeStyle&quot;:&quot;elbowEdgeStyle&quot;,&quot;elbow&quot;:&quot;vertical&quot;,&quot;curved&quot;:0,&quot;rounded&quot;:0};size=65;fillColor=#d5e8d4;strokeColor=#82b366;" parent="1" vertex="1">
          <mxGeometry x="970" width="150" height="680" as="geometry" />
        </mxCell>
        <mxCell id="6" value="Abrir o APP, e Logar" style="verticalAlign=bottom;edgeStyle=elbowEdgeStyle;elbow=vertical;curved=0;rounded=0;endArrow=none;" parent="1" source="2" target="3" edge="1">
          <mxGeometry relative="1" as="geometry">
            <Array as="points">
              <mxPoint x="268" y="107" />
            </Array>
          </mxGeometry>
        </mxCell>
        <mxCell id="7" value="Requisita Autorização" style="verticalAlign=bottom;edgeStyle=elbowEdgeStyle;elbow=vertical;curved=0;rounded=0;endArrow=none;" parent="1" source="3" target="4" edge="1">
          <mxGeometry relative="1" as="geometry">
            <Array as="points">
              <mxPoint x="680" y="130" />
              <mxPoint x="621" y="159" />
            </Array>
          </mxGeometry>
        </mxCell>
        <mxCell id="8" value="Recebe o Token de Acesso ao Sistema" style="verticalAlign=bottom;edgeStyle=elbowEdgeStyle;elbow=vertical;curved=0;rounded=0;endArrow=none;dashed=1;" parent="1" source="4" target="3" edge="1">
          <mxGeometry x="0.0011" relative="1" as="geometry">
            <Array as="points">
              <mxPoint x="621" y="211" />
            </Array>
            <mxPoint as="offset" />
          </mxGeometry>
        </mxCell>
        <mxCell id="11" value="Requisita as informações do cliente com o token dele" style="verticalAlign=bottom;edgeStyle=elbowEdgeStyle;elbow=vertical;curved=0;rounded=0;endArrow=none;" parent="1" target="5" edge="1">
          <mxGeometry relative="1" as="geometry">
            <Array as="points">
              <mxPoint x="560" y="280" />
              <mxPoint x="729" y="387" />
            </Array>
            <mxPoint x="440.92857142857156" y="280" as="sourcePoint" />
            <mxPoint x="995.5" y="280" as="targetPoint" />
          </mxGeometry>
        </mxCell>
        <mxCell id="12" value="Verifica se o Token está Válido" style="verticalAlign=bottom;edgeStyle=elbowEdgeStyle;elbow=vertical;curved=0;rounded=0;endArrow=none;" parent="1" source="5" target="4" edge="1">
          <mxGeometry relative="1" as="geometry">
            <Array as="points">
              <mxPoint x="910" y="350" />
              <mxPoint x="810" y="319.71" />
              <mxPoint x="810" y="279.71" />
              <mxPoint x="898" y="408.71" />
            </Array>
            <mxPoint x="1034.5" y="339.71" as="sourcePoint" />
            <mxPoint x="780.4285714285716" y="339.71" as="targetPoint" />
          </mxGeometry>
        </mxCell>
        <mxCell id="13" value="Token Verificado" style="verticalAlign=bottom;edgeStyle=elbowEdgeStyle;elbow=vertical;curved=0;rounded=0;endArrow=none;dashed=1;strokeColor=default;" parent="1" target="5" edge="1">
          <mxGeometry relative="1" as="geometry">
            <Array as="points">
              <mxPoint x="970" y="430" />
              <mxPoint x="800" y="420" />
              <mxPoint x="820" y="430" />
              <mxPoint x="898" y="541" />
            </Array>
            <mxPoint x="780" y="420" as="sourcePoint" />
            <mxPoint x="995.5" y="410" as="targetPoint" />
          </mxGeometry>
        </mxCell>
        <mxCell id="14" value="Resposta com as informações" style="verticalAlign=bottom;edgeStyle=elbowEdgeStyle;elbow=vertical;curved=0;rounded=0;endArrow=none;dashed=1;dashPattern=2 3;" parent="1" source="5" edge="1">
          <mxGeometry relative="1" as="geometry">
            <Array as="points">
              <mxPoint x="718.07" y="480" />
            </Array>
            <mxPoint x="984.57" y="480" as="sourcePoint" />
            <mxPoint x="440" y="480" as="targetPoint" />
          </mxGeometry>
        </mxCell>
        <mxCell id="15" value="Provides access to the requested resource" style="verticalAlign=bottom;edgeStyle=elbowEdgeStyle;elbow=vertical;curved=0;rounded=0;endArrow=none;dashed=1;dashPattern=2 3;" parent="1" source="3" target="2" edge="1">
          <mxGeometry relative="1" as="geometry">
            <Array as="points">
              <mxPoint x="268" y="575" />
            </Array>
          </mxGeometry>
        </mxCell>
        <mxCell id="TrARyFTjPTKdSR6fFpqC-15" value="Detentor dos dados originais" style="shape=umlActor;verticalLabelPosition=bottom;verticalAlign=top;html=1;outlineConnect=0;" vertex="1" parent="1">
          <mxGeometry x="-40" width="30" height="60" as="geometry" />
        </mxCell>
        <mxCell id="TrARyFTjPTKdSR6fFpqC-16" value="Gera um token JWT com uma chave publica, apenas se o acesso estiver correto" style="text;html=1;align=center;verticalAlign=middle;resizable=0;points=[];autosize=1;strokeColor=#d6b656;fillColor=#fff2cc;" vertex="1" parent="1">
          <mxGeometry x="570" y="150" width="450" height="30" as="geometry" />
        </mxCell>
        <mxCell id="TrARyFTjPTKdSR6fFpqC-17" value="Usa a chave privada para validar o token recebido pelo back" style="text;html=1;align=center;verticalAlign=middle;resizable=0;points=[];autosize=1;strokeColor=#d6b656;fillColor=#fff2cc;" vertex="1" parent="1">
          <mxGeometry x="590" y="360" width="350" height="30" as="geometry" />
        </mxCell>
      </root>
    </mxGraphModel>
  </diagram>
</mxfile>
